<svg data-v-0dd9719b="" version="1.0" xmlns="http://www.w3.org/2000/svg" xmlns:xlink="http://www.w3.org/1999/xlink" width="100%" height="100%" viewBox="0 0 340.000000 250.000000" preserveAspectRatio="xMidYMid meet" color-interpolation-filters="sRGB" style="margin: auto;"> <rect data-v-0dd9719b="" x="0" y="0" width="100%" height="100%" fill="#fff" fill-opacity="1" class="background"></rect> <rect data-v-0dd9719b="" x="0" y="0" width="100%" height="100%" fill="url(#watermark)" fill-opacity="1" class="watermarklayer"></rect> <g data-v-0dd9719b="" fill="#333" class="icon-text-wrapper icon-svg-group iconsvg" transform="translate(47.11000061035156,83.73566055297852)"><g class="iconsvg-imagesvg" transform="translate(0,0)"><g><rect fill="#333" fill-opacity="0" stroke-width="2" x="0" y="0" width="60" height="82.52867871585376" class="image-rect"></rect> <svg x="0" y="0" width="60" height="82.52867871585376" filtersec="colorsb8888356887" class="image-svg-svg primary" style="overflow: visible;"><svg xmlns="http://www.w3.org/2000/svg" viewBox="0 0 131.2979736328125 180.59866333007812"><path d="M39.91 89.86v83.73c0 6.89 0 6.94-6.7 6.9-11.78-.06-11 1.45-11-11.1V7.31c0-7.21 0-7.28 7.33-7.2 11.69.12 10.3-1.73 10.32 10.42.08 26.47.04 52.88.05 79.33z" fill="#fb7905"></path><path d="M17.8 90.43c.23 27.93.34 55.85.78 83.77.08 5-1.34 6.53-6.31 6.39C.7 180.26 1.43 182 1.33 169.85L0 7.21C0 .18 0 .18 7 .11c10.11-.1 10.12-.1 10.2 10q.28 40.15.6 80.32zM90.19 17.74c-11.91 0-23.81-.12-35.71.06-4 .06-5.5-1.37-5.39-5.4.38-14.62-2-12.17 12-12.27C82.41 0 103.77.21 125.13 0c4.61 0 6.3 1.19 6.16 6-.42 13.57 1.49 11.58-11.76 11.7-9.78.11-19.53.04-29.34.04z" fill="#2fc0d4"></path><path d="M89.93 39.31c-11.75 0-23.51-.14-35.26.08-4.34.09-5.69-1.51-5.59-5.72C49.41 20 47.54 22 60.79 21.93c21.38-.1 42.76.11 64.14-.13 5-.06 6.51 1.56 6.35 6.47-.41 12.54 1.32 10.94-11 11-10.11.09-20.23.04-30.35.04z" fill="#fb7905"></path><path d="M75.06 100.33c-7 0-14-.16-21 .06-3.89.13-5.06-1.36-5-5.15.32-13.44-1.61-12 12-12 11.39 0 22.79.11 34.18-.07 4.36-.07 6.17 1.45 6.08 6-.27 13.1 1.29 11.07-11.15 11.23-5.02-.01-10.07-.07-15.11-.07z" fill="#2fc0d4"></path><path d="M75 121.9c-7 0-14-.12-21 0-3.47.09-5-1-4.91-4.71.3-14-1.66-12.37 12.06-12.45 11.39-.06 22.79.12 34.18-.07 4.42-.07 6.11 1.58 6 6-.24 13 1.14 11-10.74 11.17-5.17.16-10.38.06-15.59.06z" fill="#fb7905"></path></svg></svg> <!----></g></g> <g transform="translate(67,26.669340133666992)"><g data-gra="path-name" fill-rule="" class="tp-name iconsvg-namesvg"><g transform="scale(1)"><g><path d="M1.47-27.84L19.27-27.84Q19.15-26.03 19.06-24.25 18.96-22.47 18.81-20.66L18.81-20.66 10.62-20.23 10.62-17.8 17.72-17.8 17.34-11.82 10.58-11.62 10.62-0.19 0.85 0 1.47-27.84ZM43.34-21.47L43.34-21.47Q43.34-20.04 43.21-18.32 43.07-16.6 42.77-14.77 42.46-12.94 41.96-11.05 41.47-9.17 40.74-7.43 40-5.7 39.03-4.18 38.05-2.66 36.79-1.53 35.53-0.41 33.96 0.24 32.4 0.89 30.49 0.89L30.49 0.89Q28.25 0.89 26.6 0.16 24.94-0.56 23.77-1.79 22.59-3.01 21.84-4.64 21.08-6.27 20.66-8.1 20.23-9.92 20.07-11.83 19.91-13.73 19.91-15.48L19.91-15.48Q19.91-18.19 20.18-20.88 20.45-23.57 20.95-26.26L20.95-26.26 29.98-25.91Q29.46-22.88 29.09-19.82 28.71-16.76 28.71-13.67L28.71-13.67Q28.71-13.34 28.74-12.69 28.77-12.05 28.84-11.25 28.92-10.45 29.07-9.61 29.21-8.77 29.46-8.07 29.71-7.38 30.07-6.93 30.43-6.49 30.91-6.49L30.91-6.49Q31.47-6.49 31.91-7.02 32.36-7.55 32.7-8.44 33.03-9.33 33.29-10.48 33.54-11.64 33.71-12.9 33.88-14.15 33.99-15.41 34.1-16.66 34.16-17.74 34.23-18.82 34.25-19.65 34.27-20.48 34.27-20.89L34.27-20.89Q34.27-22.4 34.22-23.89 34.17-25.39 34.08-26.88L34.08-26.88 43.11-26.88Q43.34-24.21 43.34-21.47ZM61.86-11.01L61.86-11.01 61.05-2.43 44.79-1.16Q44.91-7.9 45.05-14.56 45.2-21.22 45.41-27.96L45.41-27.96 55.45-27.96Q55.01-23.73 54.6-19.51 54.2-15.29 54.02-11.01L54.02-11.01Q54.93-10.97 55.82-10.97 56.7-10.97 57.61-10.97L57.61-10.97Q58.69-10.97 59.74-10.99 60.78-11.01 61.86-11.01ZM79.74-11.01L79.74-11.01 78.93-2.43 62.67-1.16Q62.79-7.9 62.93-14.56 63.08-21.22 63.29-27.96L63.29-27.96 73.33-27.96Q72.88-23.73 72.48-19.51 72.07-15.29 71.9-11.01L71.9-11.01Q72.81-10.97 73.7-10.97 74.58-10.97 75.49-10.97L75.49-10.97Q76.57-10.97 77.61-10.99 78.66-11.01 79.74-11.01ZM110.67-27.53L111.29 0 101.63 0.46 101.56-8.46 97.11-8.46 96.84 0 88.19 0 88.93-27.15 98.12-26.72 97.54-12.86 101.83-12.86 101.86-27.76 110.67-27.53ZM113.6-27.84L131.4-27.84Q131.29-26.03 131.19-24.25 131.1-22.47 130.94-20.66L130.94-20.66 122.75-20.23 122.56-17.8 128.31-17.8 127.89-11.82 122.1-11.62 121.9-8.8 126.69-8.8 130.09-8.8Q129.98-6.68 129.85-4.59 129.72-2.49 129.63-0.39L129.63-0.39 112.99 0 113.6-27.84ZM154.69-18.61L154.69-18.61Q154.69-17.11 154.43-15.88 154.17-14.65 153.61-13.63 153.05-12.61 152.16-11.74 151.27-10.87 150.02-10.08L150.02-10.08 154.61-1.89 145.92-0.19 142.95-8.42 140.56-8.34 140.21-0.31 131.91-0.31Q132-4.71 132.09-9.07 132.18-13.44 132.29-17.84L132.29-17.84Q132.33-20.06 132.37-22.24 132.41-24.42 132.52-26.64L132.52-26.64Q133.88-27.15 135.19-27.47 136.5-27.8 137.82-27.99 139.15-28.17 140.51-28.24 141.87-28.3 143.3-28.3L143.3-28.3Q145.5-28.3 147.55-27.7 149.61-27.09 151.19-25.87 152.78-24.66 153.73-22.84 154.69-21.03 154.69-18.61ZM146.04-17.99L146.04-17.99Q146.04-18.81 145.82-19.48 145.59-20.16 145.16-20.65 144.73-21.14 144.08-21.42 143.43-21.7 142.56-21.7L142.56-21.7Q142.18-21.7 141.81-21.65 141.44-21.6 141.1-21.51L141.1-21.51 140.79-14.33 141.25-14.33Q142.08-14.33 142.94-14.54 143.8-14.75 144.48-15.19 145.17-15.64 145.6-16.33 146.04-17.03 146.04-17.99ZM179.63-13.63L179.63-13.63Q179.63-11.87 179.23-10.24 178.82-8.61 178.06-7.18 177.3-5.75 176.21-4.57 175.12-3.38 173.75-2.53 172.39-1.68 170.79-1.21 169.19-0.73 167.39-0.73L167.39-0.73Q165.65-0.73 164.08-1.18 162.51-1.62 161.14-2.42 159.77-3.22 158.66-4.35 157.55-5.48 156.76-6.86 155.98-8.24 155.55-9.83 155.11-11.41 155.11-13.13L155.11-13.13Q155.11-14.81 155.52-16.42 155.92-18.03 156.69-19.46 157.45-20.89 158.53-22.09 159.61-23.28 160.95-24.15 162.3-25.02 163.86-25.5 165.42-25.99 167.16-25.99L167.16-25.99Q169.96-25.99 172.27-25.12 174.57-24.25 176.21-22.64 177.84-21.03 178.74-18.74 179.63-16.45 179.63-13.63ZM171.06-13.13L171.06-13.13Q171.06-13.96 170.82-14.74 170.58-15.52 170.11-16.13 169.65-16.74 168.97-17.12 168.28-17.49 167.39-17.49L167.39-17.49Q166.49-17.49 165.77-17.16 165.06-16.84 164.54-16.27 164.03-15.7 163.76-14.93 163.49-14.17 163.49-13.32L163.49-13.32Q163.49-12.51 163.72-11.7 163.96-10.89 164.42-10.23 164.88-9.58 165.57-9.17 166.25-8.77 167.16-8.77L167.16-8.77Q168.07-8.77 168.79-9.12 169.52-9.48 170.02-10.09 170.52-10.7 170.79-11.49 171.06-12.28 171.06-13.13Z" transform="translate(-0.8500000238418579, 28.299999237060547)"></path></g> <!----> <!----> <!----> <!----> <!----> <!----> <!----></g></g> <!----></g></g><defs v-gra="od"></defs></svg>